<mxfile host="app.diagrams.net" modified="2024-11-10T06:56:15.166Z" agent="Mozilla/5.0 (Macintosh; Intel Mac OS X 10_15_7) AppleWebKit/537.36 (KHTML, like Gecko) Chrome/130.0.0.0 Safari/537.36" etag="qOL6I4UIP2PJfr4L0mzm" version="24.7.1" type="github">
  <diagram name="第 1 页" id="MR2AliGiekq3stM3YeuH">
    <mxGraphModel dx="2473" dy="866" grid="1" gridSize="10" guides="1" tooltips="1" connect="1" arrows="1" fold="1" page="1" pageScale="1" pageWidth="827" pageHeight="1169" math="0" shadow="0">
      <root>
        <mxCell id="0" />
        <mxCell id="1" parent="0" />
        <mxCell id="ilZDVpWOzYmGqtaYFTb0-20" style="edgeStyle=orthogonalEdgeStyle;curved=1;rounded=0;orthogonalLoop=1;jettySize=auto;html=1;entryX=1;entryY=0.5;entryDx=0;entryDy=0;" edge="1" parent="1" source="ilZDVpWOzYmGqtaYFTb0-3" target="ilZDVpWOzYmGqtaYFTb0-7">
          <mxGeometry relative="1" as="geometry">
            <Array as="points">
              <mxPoint x="550" y="660" />
            </Array>
          </mxGeometry>
        </mxCell>
        <mxCell id="ilZDVpWOzYmGqtaYFTb0-3" value="开发商" style="whiteSpace=wrap;html=1;" vertex="1" parent="1">
          <mxGeometry x="490" y="350" width="120" height="60" as="geometry" />
        </mxCell>
        <mxCell id="ilZDVpWOzYmGqtaYFTb0-9" style="edgeStyle=orthogonalEdgeStyle;curved=1;rounded=0;orthogonalLoop=1;jettySize=auto;html=1;" edge="1" parent="1" source="ilZDVpWOzYmGqtaYFTb0-5" target="ilZDVpWOzYmGqtaYFTb0-3">
          <mxGeometry relative="1" as="geometry" />
        </mxCell>
        <mxCell id="ilZDVpWOzYmGqtaYFTb0-5" value="居民" style="whiteSpace=wrap;html=1;" vertex="1" parent="1">
          <mxGeometry x="250" y="90" width="120" height="60" as="geometry" />
        </mxCell>
        <mxCell id="ilZDVpWOzYmGqtaYFTb0-16" style="edgeStyle=orthogonalEdgeStyle;curved=1;rounded=0;orthogonalLoop=1;jettySize=auto;html=1;" edge="1" parent="1" source="ilZDVpWOzYmGqtaYFTb0-7" target="ilZDVpWOzYmGqtaYFTb0-15">
          <mxGeometry relative="1" as="geometry" />
        </mxCell>
        <mxCell id="ilZDVpWOzYmGqtaYFTb0-7" value="政府" style="whiteSpace=wrap;html=1;" vertex="1" parent="1">
          <mxGeometry x="250" y="630" width="120" height="60" as="geometry" />
        </mxCell>
        <mxCell id="ilZDVpWOzYmGqtaYFTb0-12" value="未来现金流&lt;div&gt;+&lt;span style=&quot;background-color: initial;&quot;&gt;储蓄&lt;/span&gt;&lt;/div&gt;" style="ellipse;whiteSpace=wrap;html=1;" vertex="1" parent="1">
          <mxGeometry x="540" y="180" width="120" height="80" as="geometry" />
        </mxCell>
        <mxCell id="ilZDVpWOzYmGqtaYFTb0-14" value="土地出让金" style="ellipse;whiteSpace=wrap;html=1;" vertex="1" parent="1">
          <mxGeometry x="540" y="540" width="120" height="80" as="geometry" />
        </mxCell>
        <mxCell id="ilZDVpWOzYmGqtaYFTb0-17" style="edgeStyle=orthogonalEdgeStyle;curved=1;rounded=0;orthogonalLoop=1;jettySize=auto;html=1;entryX=0;entryY=0.25;entryDx=0;entryDy=0;" edge="1" parent="1" source="ilZDVpWOzYmGqtaYFTb0-15" target="ilZDVpWOzYmGqtaYFTb0-5">
          <mxGeometry relative="1" as="geometry">
            <Array as="points">
              <mxPoint x="30" y="105" />
            </Array>
          </mxGeometry>
        </mxCell>
        <mxCell id="ilZDVpWOzYmGqtaYFTb0-15" value="企业" style="whiteSpace=wrap;html=1;" vertex="1" parent="1">
          <mxGeometry x="-30" y="350" width="120" height="60" as="geometry" />
        </mxCell>
        <mxCell id="ilZDVpWOzYmGqtaYFTb0-18" value="投资" style="ellipse;whiteSpace=wrap;html=1;" vertex="1" parent="1">
          <mxGeometry x="-40" y="585" width="120" height="80" as="geometry" />
        </mxCell>
        <mxCell id="ilZDVpWOzYmGqtaYFTb0-19" value="收入" style="ellipse;whiteSpace=wrap;html=1;" vertex="1" parent="1">
          <mxGeometry x="-60" y="130" width="120" height="80" as="geometry" />
        </mxCell>
        <mxCell id="ilZDVpWOzYmGqtaYFTb0-22" style="edgeStyle=orthogonalEdgeStyle;curved=1;rounded=0;orthogonalLoop=1;jettySize=auto;html=1;entryX=1;entryY=0.5;entryDx=0;entryDy=0;" edge="1" parent="1" source="ilZDVpWOzYmGqtaYFTb0-21" target="ilZDVpWOzYmGqtaYFTb0-5">
          <mxGeometry relative="1" as="geometry">
            <Array as="points">
              <mxPoint x="940" y="120" />
            </Array>
          </mxGeometry>
        </mxCell>
        <mxCell id="ilZDVpWOzYmGqtaYFTb0-24" style="edgeStyle=orthogonalEdgeStyle;curved=1;rounded=0;orthogonalLoop=1;jettySize=auto;html=1;entryX=0.5;entryY=1;entryDx=0;entryDy=0;" edge="1" parent="1" source="ilZDVpWOzYmGqtaYFTb0-21" target="ilZDVpWOzYmGqtaYFTb0-7">
          <mxGeometry relative="1" as="geometry">
            <Array as="points">
              <mxPoint x="960" y="730" />
              <mxPoint x="310" y="730" />
            </Array>
          </mxGeometry>
        </mxCell>
        <mxCell id="ilZDVpWOzYmGqtaYFTb0-26" style="edgeStyle=orthogonalEdgeStyle;curved=1;rounded=0;orthogonalLoop=1;jettySize=auto;html=1;entryX=1;entryY=0.5;entryDx=0;entryDy=0;" edge="1" parent="1" source="ilZDVpWOzYmGqtaYFTb0-21" target="ilZDVpWOzYmGqtaYFTb0-3">
          <mxGeometry relative="1" as="geometry" />
        </mxCell>
        <mxCell id="ilZDVpWOzYmGqtaYFTb0-21" value="银行" style="whiteSpace=wrap;html=1;" vertex="1" parent="1">
          <mxGeometry x="1080" y="350" width="120" height="60" as="geometry" />
        </mxCell>
        <mxCell id="ilZDVpWOzYmGqtaYFTb0-23" value="房贷" style="ellipse;whiteSpace=wrap;html=1;" vertex="1" parent="1">
          <mxGeometry x="827" y="120" width="120" height="80" as="geometry" />
        </mxCell>
        <mxCell id="ilZDVpWOzYmGqtaYFTb0-25" value="地方债" style="ellipse;whiteSpace=wrap;html=1;" vertex="1" parent="1">
          <mxGeometry x="730" y="720" width="120" height="80" as="geometry" />
        </mxCell>
        <mxCell id="ilZDVpWOzYmGqtaYFTb0-28" value="企业债" style="ellipse;whiteSpace=wrap;html=1;" vertex="1" parent="1">
          <mxGeometry x="740" y="390" width="120" height="80" as="geometry" />
        </mxCell>
      </root>
    </mxGraphModel>
  </diagram>
</mxfile>
